# xmcd
#
# Track frame offsets: 
#        150
#        12140
#        26377
#        41548
#        56379
#        65954
#        76525
#        86553
#        98274
#        111812
#        124926
#        138106
#
# Disc length: 2082 seconds
#
# Revision: 0
# Processed by: cddbd v1.4PL0 Copyright (c) Steve Scherf et al.
# Submitted via: ExactAudioCopy v0.90b4
#
DISCID=8608200c
DTITLE=George Strait - The Best Of George Strait (20th Century Masters
DTITLE=The Christmas Collection)
DYEAR=1900
DGENRE=Country
TTITLE0=Merry Christmas Strait To You
TTITLE1=When It's Christmas Time In Texas
TTITLE2=I Know What I Want For Christmas
TTITLE3=Old Time Christmas
TTITLE4=Santa's On His Way
TTITLE5=Let It Snow, Let It Snow, Let It Snow
TTITLE6=Jingle Bell Rock
TTITLE7=All I Want For Christmas (Is My Two Front Teeth)
TTITLE8=Merry Christmas (Wherever You Are)
TTITLE9=Noel Leon
TTITLE10=Rudolph The Red-Nosed Reindeer
TTITLE11=The Christmas Song
EXTD=
EXTT0=
EXTT1=
EXTT2=
EXTT3=
EXTT4=
EXTT5=
EXTT6=
EXTT7=
EXTT8=
EXTT9=
EXTT10=
EXTT11=
PLAYORDER=
